<?xml version="1.0" standalone="no"?>
<!DOCTYPE svg PUBLIC "-//W3C//DTD SVG 20010904//EN"
 "http://www.w3.org/TR/2001/REC-SVG-20010904/DTD/svg10.dtd">
<svg version="1.0" xmlns="http://www.w3.org/2000/svg"
 width="1276.000000pt" height="797.000000pt" viewBox="0 0 1276.000000 797.000000"
 preserveAspectRatio="xMidYMid meet">

<g transform="translate(0.000000,797.000000) scale(0.100000,-0.100000)"
fill="#000000" stroke="none">
<path d="M13 7963 c-10 -4 -13 -810 -13 -3984 l0 -3979 6380 0 6380 0 0 3979
c0 3619 -1 3979 -16 3985 -19 7 -12713 7 -12731 -1z m6671 -2076 c115 -219
207 -399 205 -401 -4 -2 -914 526 -925 537 -2 2 93 97 212 211 l217 206 42
-78 c23 -42 135 -256 249 -475z m-533 1 c104 -61 188 -112 187 -113 -6 -4
-420 24 -425 29 -8 8 33 196 43 196 3 0 90 -50 195 -112z m769 -175 l-1 -238
-99 195 c-54 107 -99 200 -100 205 0 6 44 24 98 41 53 18 98 32 100 33 1 0 2
-106 2 -236z m313 145 c191 -56 276 -85 273 -94 -6 -17 -569 -904 -572 -901
-5 6 10 1077 15 1077 3 0 131 -37 284 -82z m-1360 -79 c257 -13 467 -25 467
-28 0 -13 -922 -523 -929 -515 -5 5 -36 128 -70 274 -34 146 -65 274 -68 284
-5 18 -1 19 63 13 38 -3 279 -16 537 -28z m-174 -531 c-67 -101 -123 -184
-124 -186 -1 -1 -37 31 -79 70 l-77 73 198 112 c109 61 199 112 201 112 1 1
-52 -81 -119 -181z m124 -799 l-8 -115 -286 85 -286 86 288 445 c159 245 290
450 291 455 7 25 7 -853 1 -956z m1525 626 c-2 -2 -310 -181 -383 -223 -5 -3
-1 8 10 25 11 16 65 100 120 185 l99 156 78 -71 c43 -38 77 -71 76 -72z m88
-316 l71 -291 -106 6 c-58 3 -288 13 -511 21 -223 9 -419 17 -437 18 -27 2 39
43 430 269 254 147 467 267 472 268 6 0 43 -131 81 -291z m-1086 -247 c239
-140 438 -257 442 -261 5 -4 -90 -100 -210 -213 l-219 -205 -153 296 c-84 163
-196 379 -248 480 -79 152 -91 181 -71 171 13 -7 220 -128 459 -268z m-387 48
l86 -164 -102 -32 c-56 -18 -103 -31 -105 -29 -2 2 0 101 4 220 6 183 9 214
19 194 7 -13 51 -98 98 -189z m692 -75 c72 -3 146 -8 166 -11 l36 -5 -22 -97
c-12 -53 -27 -96 -32 -95 -10 2 -373 212 -383 221 -3 2 20 2 50 -1 30 -4 114
-9 185 -12z m-1535 -210 l0 -85 -480 0 -480 0 0 85 0 85 480 0 480 0 0 -85z
m3480 0 l0 -85 -480 0 -480 0 0 85 0 85 480 0 480 0 0 -85z m-3480 -340 l0
-85 -480 0 -480 0 0 85 0 85 480 0 480 0 0 -85z m3480 0 l0 -85 -480 0 -480 0
0 85 0 85 480 0 480 0 0 -85z m-4755 -1285 c0 -808 1 -786 -62 -917 -59 -120
-198 -221 -320 -231 -49 -4 -53 -3 -53 17 0 12 6 23 13 25 6 2 35 9 62 15 28
7 70 22 94 34 87 43 174 173 200 295 7 36 11 280 11 752 l0 700 -190 0 c-178
0 -190 1 -190 18 0 10 3 22 7 26 4 3 102 5 217 4 l211 -3 0 -735z m1607 314
c8 -18 7 -29 -6 -49 -31 -46 -101 -22 -94 34 6 50 79 61 100 15z m-942 -295
c117 -19 218 -84 281 -182 l38 -59 3 113 c3 110 4 114 26 117 l22 3 0 -400 0
-401 80 0 c79 0 80 0 80 -25 l0 -25 -105 0 -105 0 0 117 0 116 -30 -45 c-104
-158 -292 -230 -474 -183 -121 32 -235 128 -290 244 -41 89 -49 224 -17 315
62 177 219 294 406 305 11 0 49 -4 85 -10z m2490 0 c121 -19 227 -87 290 -186
l27 -43 8 110 c6 99 9 110 26 110 18 0 19 -12 19 -394 l0 -394 23 -6 c12 -3
50 -6 85 -6 60 0 63 -1 60 -22 -3 -22 -7 -23 -108 -23 l-105 0 -3 109 -3 108
-39 -55 c-156 -217 -475 -235 -664 -37 -131 138 -160 329 -74 500 52 105 177
200 298 226 71 16 82 16 160 3z m-660 -24 c0 -21 -5 -25 -30 -25 -87 0 -229
-76 -273 -148 -47 -75 -50 -95 -55 -361 l-4 -254 56 6 c31 3 73 3 92 0 29 -5
34 -10 32 -27 -3 -21 -7 -21 -203 -21 -200 0 -200 0 -203 23 -3 21 -1 22 87
22 l91 0 0 375 0 375 -86 0 c-83 0 -85 1 -82 23 3 21 8 22 105 25 l102 3 3
-100 3 -100 45 57 c68 86 188 150 283 151 33 1 37 -2 37 -24z m2065 1 c63 -30
90 -59 120 -131 19 -48 24 -54 30 -36 12 39 108 126 170 156 49 23 77 29 153
33 144 7 217 -32 268 -143 23 -49 24 -56 24 -357 l0 -308 91 0 c88 0 90 -1 87
-22 -3 -23 -3 -23 -203 -23 -200 0 -200 0 -203 23 -3 21 -1 22 87 22 l91 0 0
288 c0 161 -5 303 -10 323 -16 57 -51 102 -100 127 -39 20 -56 23 -125 20
-138 -7 -257 -81 -310 -193 -25 -53 -25 -57 -25 -309 l0 -256 85 0 c84 0 85 0
85 -25 l0 -25 -202 2 -203 3 0 25 0 25 88 -4 87 -3 0 306 c0 282 -2 310 -19
344 -39 75 -104 112 -199 112 -131 0 -261 -76 -317 -185 l-30 -59 -3 -258 -3
-258 91 0 c89 0 91 -1 88 -22 -3 -23 -3 -23 -203 -23 -200 0 -200 0 -203 23
-3 21 -1 22 87 22 l91 0 0 375 0 375 -85 0 c-84 0 -85 0 -85 25 l0 26 103 -3
102 -3 5 -105 c4 -93 6 -101 17 -77 17 37 90 115 134 143 92 58 255 72 344 30z
m-2975 -386 l0 -400 86 0 c83 0 85 -1 82 -22 -3 -23 -3 -23 -203 -23 -200 0
-200 0 -203 23 -3 21 -1 22 92 22 l96 0 0 375 0 375 -95 0 c-85 0 -95 2 -95
18 0 10 3 22 7 25 3 4 57 7 120 7 l113 0 0 -400z"/>
<path d="M4315 2606 c-84 -26 -181 -110 -223 -193 -97 -191 -11 -433 188 -527
58 -27 75 -31 155 -31 80 0 97 4 157 32 141 67 220 181 226 328 8 179 -85 325
-243 384 -65 24 -194 28 -260 7z"/>
<path d="M6788 2597 c-78 -33 -130 -77 -177 -149 -49 -76 -65 -141 -59 -244 4
-60 11 -92 32 -133 35 -67 115 -148 179 -179 282 -138 604 106 548 414 -24
126 -97 224 -211 278 -56 27 -78 31 -160 34 -81 2 -103 -1 -152 -21z"/>
</g>
</svg>
